<svg xmlns="http://www.w3.org/2000/svg" version="1.1" xmlns:xlink="http://www.w3.org/1999/xlink" xmlns:svgjs="http://svgjs.com/svgjs" width="1920" height="1080" preserveAspectRatio="none" viewBox="0 0 1920 1080"><g mask="url(&quot;#SvgjsMask1049&quot;)" fill="none"><path d="M617 99L616 748" stroke-width="6" stroke="url(#SvgjsLinearGradient1050)" stroke-linecap="round" class="Up"></path><path d="M1725 574L1724 214" stroke-width="8" stroke="url(#SvgjsLinearGradient1050)" stroke-linecap="round" class="Up"></path><path d="M1537 560L1536 62" stroke-width="6" stroke="url(#SvgjsLinearGradient1050)" stroke-linecap="round" class="Up"></path><path d="M1451 304L1450 -234" stroke-width="10" stroke="url(#SvgjsLinearGradient1051)" stroke-linecap="round" class="Down"></path><path d="M321 1061L320 1363" stroke-width="10" stroke="url(#SvgjsLinearGradient1050)" stroke-linecap="round" class="Up"></path><path d="M53 416L52 977" stroke-width="10" stroke="url(#SvgjsLinearGradient1050)" stroke-linecap="round" class="Up"></path><path d="M79 66L78 549" stroke-width="8" stroke="url(#SvgjsLinearGradient1050)" stroke-linecap="round" class="Up"></path><path d="M167 952L166 181" stroke-width="8" stroke="url(#SvgjsLinearGradient1051)" stroke-linecap="round" class="Down"></path><path d="M1319 1008L1318 655" stroke-width="8" stroke="url(#SvgjsLinearGradient1050)" stroke-linecap="round" class="Up"></path><path d="M316 403L315 -222" stroke-width="6" stroke="url(#SvgjsLinearGradient1051)" stroke-linecap="round" class="Down"></path><path d="M1889 425L1888 1223" stroke-width="10" stroke="url(#SvgjsLinearGradient1051)" stroke-linecap="round" class="Down"></path><path d="M1558 999L1557 1807" stroke-width="8" stroke="url(#SvgjsLinearGradient1050)" stroke-linecap="round" class="Up"></path><path d="M843 1067L842 386" stroke-width="10" stroke="url(#SvgjsLinearGradient1051)" stroke-linecap="round" class="Down"></path><path d="M885 261L884 1068" stroke-width="6" stroke="url(#SvgjsLinearGradient1051)" stroke-linecap="round" class="Down"></path><path d="M1056 625L1055 161" stroke-width="6" stroke="url(#SvgjsLinearGradient1051)" stroke-linecap="round" class="Down"></path><path d="M69 1009L68 578" stroke-width="6" stroke="url(#SvgjsLinearGradient1051)" stroke-linecap="round" class="Down"></path><path d="M31 277L30 844" stroke-width="6" stroke="url(#SvgjsLinearGradient1050)" stroke-linecap="round" class="Up"></path><path d="M976 456L975 -200" stroke-width="8" stroke="url(#SvgjsLinearGradient1051)" stroke-linecap="round" class="Down"></path><path d="M1606 926L1605 1289" stroke-width="10" stroke="url(#SvgjsLinearGradient1050)" stroke-linecap="round" class="Up"></path><path d="M1125 242L1124 1024" stroke-width="6" stroke="url(#SvgjsLinearGradient1050)" stroke-linecap="round" class="Up"></path><path d="M1833 765L1832 477" stroke-width="10" stroke="url(#SvgjsLinearGradient1050)" stroke-linecap="round" class="Up"></path><path d="M1281 938L1280 1390" stroke-width="8" stroke="url(#SvgjsLinearGradient1050)" stroke-linecap="round" class="Up"></path><path d="M367 311L366 -252" stroke-width="8" stroke="url(#SvgjsLinearGradient1051)" stroke-linecap="round" class="Down"></path><path d="M1728 1031L1727 286" stroke-width="8" stroke="url(#SvgjsLinearGradient1051)" stroke-linecap="round" class="Down"></path><path d="M719 1030L718 494" stroke-width="6" stroke="url(#SvgjsLinearGradient1050)" stroke-linecap="round" class="Up"></path><path d="M1607 85L1606 -269" stroke-width="10" stroke="url(#SvgjsLinearGradient1050)" stroke-linecap="round" class="Up"></path><path d="M666 117L665 -475" stroke-width="10" stroke="url(#SvgjsLinearGradient1050)" stroke-linecap="round" class="Up"></path><path d="M1386 635L1385 1245" stroke-width="6" stroke="url(#SvgjsLinearGradient1050)" stroke-linecap="round" class="Up"></path><path d="M1303 826L1302 1503" stroke-width="8" stroke="url(#SvgjsLinearGradient1051)" stroke-linecap="round" class="Down"></path><path d="M1330 35L1329 356" stroke-width="8" stroke="url(#SvgjsLinearGradient1050)" stroke-linecap="round" class="Up"></path><path d="M723 274L722 1074" stroke-width="10" stroke="url(#SvgjsLinearGradient1051)" stroke-linecap="round" class="Down"></path><path d="M1088 272L1087 -200" stroke-width="8" stroke="url(#SvgjsLinearGradient1050)" stroke-linecap="round" class="Up"></path><path d="M1743 552L1742 26" stroke-width="6" stroke="url(#SvgjsLinearGradient1050)" stroke-linecap="round" class="Up"></path><path d="M1356 648L1355 1435" stroke-width="6" stroke="url(#SvgjsLinearGradient1051)" stroke-linecap="round" class="Down"></path><path d="M1465 450L1464 1042" stroke-width="6" stroke="url(#SvgjsLinearGradient1051)" stroke-linecap="round" class="Down"></path><path d="M127 166L126 443" stroke-width="6" stroke="url(#SvgjsLinearGradient1050)" stroke-linecap="round" class="Up"></path><path d="M1170 482L1169 1240" stroke-width="10" stroke="url(#SvgjsLinearGradient1050)" stroke-linecap="round" class="Up"></path><path d="M1128 468L1127 -98" stroke-width="10" stroke="url(#SvgjsLinearGradient1051)" stroke-linecap="round" class="Down"></path><path d="M1840 943L1839 1382" stroke-width="10" stroke="url(#SvgjsLinearGradient1051)" stroke-linecap="round" class="Down"></path><path d="M644 786L643 1521" stroke-width="10" stroke="url(#SvgjsLinearGradient1050)" stroke-linecap="round" class="Up"></path><path d="M453 721L452 1147" stroke-width="8" stroke="url(#SvgjsLinearGradient1051)" stroke-linecap="round" class="Down"></path><path d="M1645 230L1644 566" stroke-width="8" stroke="url(#SvgjsLinearGradient1050)" stroke-linecap="round" class="Up"></path><path d="M604 730L603 1130" stroke-width="10" stroke="url(#SvgjsLinearGradient1050)" stroke-linecap="round" class="Up"></path><path d="M1637 846L1636 284" stroke-width="10" stroke="url(#SvgjsLinearGradient1051)" stroke-linecap="round" class="Down"></path><path d="M1261 854L1260 362" stroke-width="8" stroke="url(#SvgjsLinearGradient1050)" stroke-linecap="round" class="Up"></path><path d="M315 801L314 1577" stroke-width="6" stroke="url(#SvgjsLinearGradient1051)" stroke-linecap="round" class="Down"></path><path d="M1081 574L1080 895" stroke-width="6" stroke="url(#SvgjsLinearGradient1050)" stroke-linecap="round" class="Up"></path><path d="M1413 773L1412 1407" stroke-width="10" stroke="url(#SvgjsLinearGradient1051)" stroke-linecap="round" class="Down"></path></g><defs><mask id="SvgjsMask1049"><rect width="1920" height="1080" fill="#ffffff"></rect></mask><linearGradient x1="0%" y1="100%" x2="0%" y2="0%" id="SvgjsLinearGradient1050"><stop stop-color="rgba(255, 255, 255, 0)" offset="0"></stop><stop stop-color="rgba(255, 255, 255, 1)" offset="1"></stop></linearGradient><linearGradient x1="0%" y1="0%" x2="0%" y2="100%" id="SvgjsLinearGradient1051"><stop stop-color="rgba(255, 255, 255, 0)" offset="0"></stop><stop stop-color="rgba(255, 255, 255, 1)" offset="1"></stop></linearGradient></defs></svg>